<?xml version="1.0" standalone="no"?>
<!DOCTYPE svg PUBLIC "-//W3C//DTD SVG 20010904//EN"
 "http://www.w3.org/TR/2001/REC-SVG-20010904/DTD/svg10.dtd">
<svg version="1.0" xmlns="http://www.w3.org/2000/svg"
 width="900.000000pt" height="900.000000pt" viewBox="0 0 900.000000 900.000000"
 preserveAspectRatio="xMidYMid meet">

<g transform="translate(0.000000,900.000000) scale(0.100000,-0.100000)"
fill="#999999" stroke="none">
<path d="M4564 8336 c-3 -8 -12 -12 -19 -10 -24 10 -130 -16 -192 -46 -70 -35
-121 -88 -163 -170 -42 -84 -61 -153 -61 -217 1 -32 -1 -117 -3 -190 l-4 -132
36 -17 c32 -15 34 -18 19 -29 -9 -7 -17 -21 -17 -32 0 -22 53 -83 72 -83 7 0
3 -6 -7 -14 -21 -15 -14 -46 10 -46 8 0 15 -4 15 -10 0 -5 8 -10 18 -10 10 0
27 -6 38 -14 16 -12 17 -18 7 -33 -7 -10 -29 -48 -48 -84 -34 -62 -40 -68 -83
-79 -25 -6 -86 -27 -135 -46 -49 -19 -106 -34 -126 -34 -55 0 -139 -28 -191
-63 -45 -32 -308 -292 -345 -342 -11 -15 -26 -32 -34 -38 -49 -43 -157 -157
-177 -188 -13 -21 -41 -52 -63 -70 -48 -38 -84 -89 -102 -144 -7 -22 -21 -51
-31 -64 -10 -13 -18 -32 -18 -41 0 -10 -9 -38 -20 -63 -29 -65 -35 -150 -17
-217 54 -191 150 -373 291 -554 25 -33 46 -66 46 -74 0 -22 130 -231 171 -274
57 -60 122 -56 274 17 l109 52 38 -25 c21 -13 38 -27 38 -30 0 -2 -13 -19 -28
-37 -19 -21 -31 -48 -35 -79 -4 -25 -15 -63 -26 -84 -37 -73 -88 -402 -79
-510 4 -42 -3 -88 -23 -171 l-28 -113 22 -29 c11 -16 44 -42 72 -58 l52 -29 6
-69 c10 -101 8 -511 -2 -517 -4 -3 -18 -36 -31 -73 -12 -37 -29 -76 -38 -85
-11 -14 -13 -32 -8 -81 5 -56 4 -66 -14 -82 -36 -32 -59 -151 -65 -325 -1 -58
-8 -118 -15 -135 -17 -41 -25 -571 -10 -640 32 -143 43 -342 24 -417 -27 -108
-38 -146 -76 -267 -42 -131 -65 -277 -54 -337 9 -47 68 -111 114 -124 21 -5
89 -10 153 -10 104 0 120 2 150 23 19 12 42 39 52 60 20 40 21 31 -21 202 -18
72 -19 94 -10 220 11 166 12 206 3 348 -6 88 -4 116 8 145 9 20 23 87 31 147
9 61 20 124 25 140 5 17 17 77 26 135 9 58 21 114 26 125 35 81 51 140 55 200
8 134 17 210 25 216 5 3 20 45 33 95 14 49 36 127 50 173 14 47 26 106 26 131
0 25 5 51 12 58 7 7 15 36 19 64 21 140 31 180 64 249 24 49 34 83 31 100 -6
33 14 99 50 164 42 77 62 95 105 95 l37 0 7 -67 c3 -38 11 -102 17 -143 14
-90 14 -106 4 -280 -7 -123 -6 -139 12 -181 26 -59 22 -189 -6 -246 -18 -35
-19 -57 -16 -263 3 -164 8 -241 20 -280 8 -30 20 -77 25 -105 5 -27 16 -67 24
-88 8 -20 15 -54 15 -75 0 -21 6 -61 14 -88 8 -27 17 -110 21 -184 3 -74 10
-162 16 -196 8 -48 7 -76 -5 -137 -19 -93 -20 -177 -2 -280 22 -126 30 -131
226 -158 41 -6 122 -26 180 -45 117 -37 255 -64 334 -64 47 0 163 24 175 36 3
2 7 30 9 62 l4 58 -63 65 c-50 51 -75 68 -112 79 -60 16 -170 84 -247 152 -74
65 -124 145 -140 223 -6 33 -18 79 -26 103 -18 55 -18 167 1 265 8 43 15 109
15 145 0 37 7 95 15 129 13 55 21 268 15 393 -2 43 12 117 28 147 7 12 12 36
12 53 0 17 7 45 16 62 12 24 14 39 6 70 -6 25 -7 51 -1 73 24 84 69 330 69
373 0 26 3 57 6 70 7 25 24 30 24 7 0 -10 10 -15 30 -15 23 0 30 4 30 20 0 14
7 20 24 20 13 0 34 9 47 19 31 26 17 52 -34 65 -39 10 -47 20 -22 30 20 7 19
53 -1 64 -13 7 -16 33 -17 153 -2 109 1 144 11 145 6 1 19 2 27 3 21 1 22 216
1 228 -10 6 -15 55 -19 203 -5 159 -9 197 -22 206 -26 19 -17 31 28 38 66 11
126 51 147 100 20 46 36 168 50 386 8 130 12 156 46 250 33 91 38 116 37 186
-1 44 -7 107 -13 140 -7 32 -12 66 -12 74 4 81 10 138 17 153 5 12 2 32 -9 53
-9 19 -16 48 -16 65 0 37 -40 123 -80 174 -17 22 -33 58 -40 93 -7 31 -25 81
-41 111 -23 43 -29 68 -29 115 0 43 -8 79 -26 121 -14 33 -30 76 -36 95 -22
74 -107 169 -191 211 -32 17 -95 44 -140 60 -45 17 -96 41 -114 55 -30 22 -33
30 -33 75 0 57 -18 106 -49 133 -24 22 -29 51 -6 42 12 -4 15 3 15 31 0 20 8
45 17 56 10 10 20 42 23 70 4 42 10 54 28 62 12 5 22 14 22 20 0 6 21 32 47
59 26 27 48 59 49 70 0 12 -12 44 -28 73 -18 32 -35 83 -44 133 -7 44 -19 90
-25 101 -6 12 -20 49 -31 82 -25 77 -60 138 -110 193 -43 46 -128 89 -159 79
-12 -4 -30 0 -45 10 -21 14 -25 14 -30 1z m-35 -47 c-43 -7 -89 -24 -89 -34 0
-2 7 -2 15 1 8 4 15 3 15 0 0 -6 -84 -46 -96 -46 -3 0 1 10 7 22 l11 21 -33
-20 c-19 -11 -33 -25 -32 -30 1 -5 -4 -10 -12 -10 -28 0 15 51 63 76 12 7 37
14 55 16 17 3 45 9 62 13 16 5 41 6 55 3 20 -4 16 -6 -21 -12z m238 -43 c46
-42 100 -127 118 -186 7 -22 6 -23 -9 -11 -9 7 -16 10 -16 6 0 -4 -22 12 -48
36 -27 24 -65 58 -85 75 -35 29 -49 64 -27 64 5 0 29 -17 51 -37 l42 -38 -18
35 c-9 19 -31 50 -48 68 -46 47 -17 39 40 -12z m-297 -30 c0 -21 -24 -36 -80
-51 -66 -17 -63 -1 6 37 55 31 74 34 74 14z m286 -91 c64 -49 104 -92 104
-110 0 -16 -49 11 -90 49 l-44 41 38 -43 c36 -42 43 -69 11 -42 -13 11 -14 10
-9 -4 10 -25 -3 -19 -52 26 -53 49 -78 91 -69 118 10 31 34 24 111 -35z m-346
25 c0 -11 -58 -50 -74 -50 -22 0 40 51 72 59 1 1 2 -4 2 -9z m157 -42 c-3 -7
-5 -2 -5 12 0 14 2 19 5 13 2 -7 2 -19 0 -25z m-145 -2 c6 4 9 1 6 -7 -6 -19
-56 -42 -75 -35 -13 5 -9 12 18 32 19 13 35 20 37 14 2 -5 8 -7 14 -4z m57
-181 l2 20 8 -20 c8 -19 8 -19 15 3 8 23 8 23 24 -10 10 -18 27 -38 40 -44
l23 -11 -23 -17 -23 -17 25 5 c14 2 41 10 60 18 21 7 62 12 97 10 60 -4 62 -5
69 -35 3 -18 15 -58 25 -91 11 -32 19 -71 19 -86 0 -19 9 -35 27 -48 l27 -19
-24 -8 c-15 -5 -25 -4 -28 4 -2 6 -10 11 -18 11 -12 0 -14 -15 -12 -73 3 -67
1 -77 -25 -111 -57 -74 -179 -130 -268 -124 -65 5 -143 49 -185 104 -38 49
-94 244 -94 324 0 65 0 66 42 98 45 34 62 38 120 21 45 -12 53 -33 46 -116 -4
-49 -3 -53 8 -32 16 30 18 100 3 133 -9 20 -24 28 -65 36 l-53 11 29 43 c16
23 44 81 62 127 l33 84 6 -105 c3 -58 6 -96 8 -85z m44 123 c-18 -61 -21 -68
-34 -68 -5 0 -9 21 -9 48 0 34 3 43 10 32 7 -11 10 -11 10 -2 0 7 4 11 9 8 5
-3 11 3 14 14 3 11 8 20 11 20 2 0 -2 -24 -11 -52z m197 -29 c64 -60 64 -61
33 -57 -32 4 -32 4 -16 -14 13 -14 14 -21 5 -30 -16 -16 -57 23 -88 84 -49 96
-26 102 66 17z m-312 19 c-18 -27 -48 -36 -48 -14 0 16 26 35 49 36 11 0 11
-4 -1 -22z m224 -19 c9 -22 15 -48 12 -57 -5 -13 -4 -14 4 -3 6 8 12 9 16 3 3
-5 -1 -12 -9 -16 -12 -4 -13 -11 -5 -32 16 -40 -11 -25 -37 22 -23 39 -29 78
-17 108 9 25 18 19 36 -25z m-56 -26 c13 -42 39 -99 49 -106 5 -5 -6 -5 -25
-2 -19 4 -41 14 -47 23 -16 20 -17 56 -2 46 8 -4 9 3 4 25 -7 33 11 45 21 14z
m215 -93 c5 0 9 -5 9 -11 0 -15 -43 -7 -48 10 -3 10 0 12 12 8 10 -4 22 -7 27
-7z m69 -47 c0 -8 -5 -11 -11 -7 -9 5 -10 -1 -5 -20 11 -43 -5 -53 -25 -15
-20 38 -24 53 -10 44 5 -3 13 4 16 15 5 17 10 19 21 9 8 -6 14 -18 14 -26z
m148 -188 c-3 -35 -44 -43 -74 -14 -32 30 -33 57 -2 35 36 -26 42 -18 9 10
-17 14 -31 31 -31 36 0 6 8 4 18 -5 10 -10 22 -17 27 -17 5 0 -1 9 -13 20 -12
12 -22 27 -22 35 0 8 20 -6 45 -30 31 -32 44 -53 43 -70z m-75 -51 c-3 -8 -7
-14 -10 -14 -3 0 -3 6 0 14 3 8 -1 17 -9 20 -8 3 -14 11 -14 17 0 7 8 5 19 -5
11 -10 17 -24 14 -32z m-23 4 c0 -13 -23 -5 -28 10 -2 7 2 10 12 6 9 -3 16
-11 16 -16z m-108 -315 c-3 -95 -1 -127 13 -163 10 -25 17 -56 17 -70 0 -36
-20 -186 -33 -248 -6 -30 -12 -89 -12 -132 -2 -73 -3 -77 -16 -52 -7 15 -62
101 -121 192 -59 91 -126 196 -150 233 -24 38 -54 76 -66 84 -32 21 -81 101
-87 145 l-6 37 66 -36 c90 -49 143 -50 243 -2 67 33 150 99 150 121 0 4 1 8 3
8 2 0 1 -53 -1 -117z m-378 -183 c29 -30 65 -77 81 -105 16 -27 69 -110 117
-183 48 -73 103 -161 123 -197 41 -73 42 -55 -14 -302 -32 -139 -47 -175 -154
-362 -55 -95 -67 -110 -71 -90 -23 116 -23 115 -18 29 l5 -85 -44 -78 c-23
-42 -45 -77 -49 -77 -3 0 -18 63 -34 140 -16 77 -30 139 -32 137 -2 -2 7 -75
21 -162 l25 -158 -33 -59 -32 -59 -11 28 c-6 15 -33 123 -60 240 -26 117 -50
210 -52 208 -3 -3 50 -276 65 -330 3 -11 -8 -1 -25 22 -17 22 -36 44 -43 49
-7 4 -1 -8 14 -27 14 -19 42 -76 62 -127 l35 -92 -19 -38 c-39 -72 -37 -73
-76 12 -51 113 -104 269 -120 356 -7 41 -14 62 -14 47 -2 -70 67 -310 132
-456 l24 -54 -21 -63 c-12 -35 -26 -64 -32 -64 -21 0 -134 62 -134 74 0 6 -15
35 -34 64 -43 68 -91 213 -110 333 -8 52 -17 166 -21 254 -7 176 -24 280 -59
358 l-23 52 -7 -225 c-8 -261 1 -369 43 -524 l29 -108 -37 36 c-21 21 -58 43
-81 50 -29 9 -44 19 -46 32 -4 25 -49 64 -75 64 -30 0 -22 -20 15 -35 22 -10
37 -25 44 -45 9 -24 17 -30 41 -30 37 0 92 -45 127 -106 19 -32 35 -47 62 -55
32 -10 102 -77 102 -98 0 -3 -22 -18 -48 -32 -26 -14 -103 -61 -172 -103 -69
-43 -161 -91 -205 -107 -90 -33 -155 -79 -155 -111 0 -20 -1 -20 -18 3 -39 51
-129 205 -136 234 -4 16 -23 47 -43 68 -90 100 -215 323 -267 479 -42 122 -45
178 -15 258 11 30 23 67 26 82 3 14 15 37 26 49 12 13 20 31 19 40 -2 10 2 20
8 24 5 3 10 14 10 24 0 10 9 26 20 36 11 10 20 23 20 30 0 6 17 23 37 36 20
13 53 47 73 76 31 44 202 223 214 223 3 0 10 -26 17 -57 11 -54 8 -163 -6
-253 -5 -35 -5 -35 5 -5 23 70 33 191 21 258 -6 37 -14 73 -17 80 -2 7 12 30
33 50 307 302 318 310 450 328 43 6 119 25 168 44 50 18 105 36 124 40 35 7
70 39 71 63 0 20 20 3 20 -17 0 -9 7 -26 15 -37 14 -18 14 -17 5 9 -14 38 -13
110 2 125 9 9 17 2 36 -31 13 -23 47 -67 76 -97z m426 42 c0 -44 -10 -35 -20
18 -6 33 -5 38 6 29 8 -6 14 -27 14 -47z m17 -159 c-3 -32 -2 -80 2 -108 8
-47 8 -45 10 35 1 78 3 83 17 65 13 -18 14 -17 8 15 l-7 35 24 -21 c13 -11 60
-33 104 -49 119 -41 174 -71 233 -128 76 -74 92 -109 93 -209 1 -46 5 -112 9
-148 6 -61 7 -58 8 45 1 63 6 105 11 100 20 -22 34 -95 32 -165 -1 -41 1 -113
6 -160 l8 -85 5 85 5 85 24 -48 c12 -27 20 -55 17 -63 -3 -9 1 -28 9 -44 8
-16 15 -38 15 -48 0 -11 9 -22 19 -25 26 -6 81 -117 81 -162 0 -20 7 -47 16
-61 14 -20 15 -30 5 -51 -6 -14 -9 -33 -6 -42 2 -9 1 -36 -3 -61 -5 -29 -3
-65 5 -100 18 -78 16 -140 -6 -183 -22 -43 -20 -46 9 -15 33 35 35 13 6 -59
-54 -137 -67 -206 -82 -448 -8 -119 -8 -119 -15 -55 -11 104 -98 236 -189 288
l-48 28 18 36 c9 20 27 50 39 66 11 17 21 35 21 41 0 15 27 26 98 41 34 7 61
14 59 16 -1 2 -35 0 -75 -4 l-72 -8 0 41 c0 40 5 48 98 140 88 89 90 92 26 37
-39 -34 -77 -68 -84 -77 -18 -22 -30 -18 -30 10 0 15 6 25 14 25 15 0 130 120
149 155 5 11 -23 -15 -62 -57 -40 -43 -79 -78 -87 -78 -15 0 -19 13 -33 105
l-10 60 80 75 c82 77 119 124 119 150 -1 8 -7 2 -14 -15 -14 -31 -58 -75 -137
-139 l-47 -36 -11 44 c-16 64 -14 69 13 51 23 -15 25 -15 31 5 4 12 2 27 -3
32 -7 7 -10 5 -9 -5 3 -25 -17 -21 -25 5 -11 42 -8 86 8 102 8 9 11 16 5 16
-17 0 -31 -36 -32 -87 l-1 -48 -8 45 c-9 47 -35 253 -46 353 -3 32 -7 57 -9
55 -8 -8 27 -365 49 -493 38 -233 44 -299 37 -407 -7 -94 -12 -113 -36 -147
-15 -22 -34 -55 -44 -73 -9 -18 -25 -35 -36 -37 -17 -3 -16 1 9 34 l29 37 -28
-18 -28 -18 5 94 c4 62 3 79 -2 50 -4 -25 -9 -88 -10 -140 -2 -85 -5 -99 -28
-134 l-27 -40 -6 65 c-5 63 -6 63 -8 14 -2 -46 -27 -243 -32 -255 -1 -3 -5 20
-9 50 l-7 55 -1 -54 -2 -54 -121 8 c-67 4 -136 13 -155 21 -29 12 -34 19 -36
52 l-1 37 -4 -38 c-3 -30 -8 -37 -21 -33 -9 3 -34 8 -54 12 -38 6 -38 6 -39
58 l-1 51 -9 -39 c-5 -22 -11 -42 -14 -44 -2 -2 -28 6 -58 18 l-55 23 10 34
c13 47 3 54 -12 9 -11 -33 -40 -51 -40 -24 0 6 -9 21 -20 33 l-21 22 65 155
c36 85 78 186 95 223 17 38 29 70 27 72 -3 4 -146 -307 -181 -394 -10 -24 -19
-43 -22 -43 -2 0 -43 14 -90 30 -46 17 -96 30 -110 30 -24 0 -25 3 -20 38 8
55 177 383 349 677 l150 257 45 182 c36 147 46 208 53 323 5 79 11 146 14 151
3 5 10 49 16 98 6 49 14 99 17 112 10 41 16 22 10 -35z m-1028 -804 c6 -30 12
-142 15 -249 4 -207 23 -334 66 -458 12 -35 20 -65 17 -68 -12 -12 -39 34 -62
108 -61 192 -67 235 -71 518 -4 236 -3 262 10 234 8 -18 19 -56 25 -85z m-189
-539 c8 -5 11 -10 5 -10 -5 0 -17 5 -25 10 -8 5 -10 10 -5 10 6 0 17 -5 25
-10z m410 -413 c43 -29 123 -59 215 -81 87 -20 179 -65 183 -90 4 -19 -11 -18
-63 3 -27 11 -156 31 -201 31 -25 0 -42 7 -59 26 -27 29 -36 12 -11 -21 8 -11
12 -25 9 -32 -3 -7 16 -52 42 -99 45 -83 83 -213 70 -235 -10 -16 -25 -10 -34
14 -26 68 -61 131 -114 205 -85 118 -87 109 -5 -29 46 -78 101 -217 94 -236
-3 -7 -14 -13 -25 -13 -14 0 -24 13 -37 48 -15 40 -178 282 -191 282 -6 0 45
-86 100 -168 44 -67 54 -102 28 -102 -18 0 -102 93 -132 146 -16 29 -47 64
-69 79 -49 34 -120 110 -120 128 0 21 238 165 275 167 6 0 26 -10 45 -23z
m1256 -43 c81 -39 183 -199 170 -268 -12 -61 -144 -241 -164 -222 -2 3 12 31
31 63 19 32 40 74 46 94 7 20 21 45 31 54 11 10 20 23 20 28 0 22 -40 -28 -68
-86 -17 -34 -51 -90 -77 -125 -44 -61 -69 -81 -82 -68 -6 6 36 91 92 186 18
30 40 79 49 109 9 29 21 60 27 67 7 9 8 14 1 14 -5 0 -21 -29 -35 -63 -34 -89
-138 -257 -157 -254 -35 6 10 147 80 252 11 17 20 39 19 50 0 11 -3 14 -6 8
-5 -14 -33 -18 -33 -6 0 4 15 22 33 41 26 28 28 32 9 22 -13 -6 -41 -27 -61
-46 -21 -18 -41 -31 -45 -27 -3 3 -6 -3 -6 -14 0 -11 -9 -28 -20 -38 -19 -18
-20 -17 -20 6 1 50 19 101 52 142 18 23 39 54 46 70 13 31 22 33 68 11z
m-1596 -117 c0 -7 16 -32 35 -54 l35 -41 -33 -19 c-109 -64 -274 -119 -252
-84 6 10 2 11 -15 6 -15 -5 -20 -4 -16 4 4 6 3 11 -3 11 -6 0 -15 9 -21 21 -9
17 -8 25 7 41 22 24 109 69 180 92 29 10 55 22 58 27 9 14 25 11 25 -4z m1510
-92 c-7 -9 -15 -13 -18 -10 -3 2 1 11 8 20 7 9 15 13 18 10 3 -2 -1 -11 -8
-20z m-184 -89 c68 -2 126 -5 129 -8 10 -10 -41 -158 -64 -184 l-23 -26 -136
7 c-138 7 -172 15 -172 39 0 18 57 155 72 173 7 9 21 12 40 8 16 -4 85 -8 154
-9z m459 -142 c-3 -18 -15 -45 -28 -60 -12 -15 -16 -24 -9 -20 8 5 22 22 33
40 10 17 19 26 19 20 0 -21 -45 -78 -75 -95 -17 -10 -47 -21 -69 -25 -36 -6
-38 -6 -27 14 6 11 11 30 11 42 0 12 17 41 38 65 20 23 53 69 72 102 l35 60 3
-56 c2 -31 1 -70 -3 -87z m-1605 103 c0 -2 -12 -14 -27 -28 l-28 -24 24 28
c23 25 31 32 31 24z m-7 -68 c-52 -53 -67 -34 -17 21 26 29 40 38 48 30 7 -7
-2 -22 -31 -51z m79 -3 c16 -23 16 -24 -17 -56 l-35 -34 -25 24 -25 24 32 33
c38 39 47 40 70 9z m38 -42 c0 -3 -17 -25 -37 -50 -25 -29 -40 -41 -47 -34 -7
7 3 23 29 50 36 37 55 49 55 34z m665 -35 c148 -41 219 -51 341 -47 l104 3 -6
-70 c-4 -38 -13 -77 -20 -85 -15 -18 -67 -150 -61 -156 2 -2 16 27 31 65 15
38 36 77 46 86 20 18 20 17 20 -63 0 -78 -2 -84 -40 -143 -22 -34 -40 -67 -40
-73 0 -5 13 11 29 36 46 73 51 70 51 -31 0 -74 3 -91 15 -91 12 0 15 -19 15
-110 l0 -109 -64 -36 c-77 -43 -161 -77 -276 -111 -68 -21 -112 -26 -220 -29
-97 -3 -161 -10 -225 -27 -70 -17 -119 -22 -225 -23 -162 0 -209 14 -285 86
-27 25 -69 56 -91 67 -23 12 -51 34 -62 48 -18 26 -19 31 -6 88 8 34 24 93 36
131 11 39 22 102 23 140 1 39 7 97 13 130 7 33 11 83 11 110 -1 48 -2 48 -10
-19 -13 -98 -31 -152 -24 -71 10 106 28 190 37 169 5 -12 6 -6 3 17 -3 19 1
53 8 74 l13 38 22 -41 c12 -23 26 -72 32 -109 19 -118 95 -246 191 -322 35
-28 29 -19 -27 41 -87 92 -131 176 -146 279 -6 41 -19 90 -28 109 -10 19 -14
43 -11 53 5 14 14 4 40 -48 39 -77 116 -165 175 -200 23 -13 57 -41 76 -61
l35 -37 -30 7 c-43 10 -100 50 -179 125 -60 56 -65 60 -36 23 37 -48 135 -134
180 -157 16 -8 40 -15 54 -15 14 0 28 -4 31 -10 14 -22 47 -7 105 46 l60 57
55 -18 c30 -9 60 -14 67 -12 7 3 4 6 -7 6 -45 3 -155 68 -155 92 0 4 19 10 43
12 38 3 37 4 -13 5 -54 2 -57 4 -119 66 l-64 65 34 9 c33 8 34 8 56 -37 31
-63 45 -71 130 -71 l73 0 29 48 c16 26 36 55 44 64 9 9 13 19 10 21 -6 7 6 47
15 47 4 0 57 -14 117 -31z m-520 -119 c71 -71 126 -132 122 -136 -4 -4 -8 -5
-9 -3 -2 3 -61 64 -133 137 -71 73 -125 132 -120 132 6 0 69 -58 140 -130z
m1188 74 c-3 -8 -13 -29 -22 -48 -16 -31 -19 -32 -29 -15 -10 15 -8 21 10 34
16 10 18 15 7 15 -8 0 -20 -5 -27 -12 -18 -18 -24 -5 -8 18 16 22 77 29 69 8z
m-183 -6 c0 -6 7 -19 15 -28 12 -13 13 -24 6 -42 -9 -24 -38 -44 -49 -34 -8 9
9 116 19 116 5 0 9 -5 9 -12z m-1160 -104 c81 -82 70 -89 -12 -8 -43 42 -76
84 -66 84 2 0 37 -34 78 -76z m1252 18 c-27 -4 -37 2 -27 17 4 8 13 7 28 -1
l22 -13 -23 -3z m18 -114 c0 -51 3 -144 7 -205 5 -97 9 -113 25 -118 16 -6 18
-18 18 -111 l0 -104 -64 0 -63 0 -7 53 c-3 28 -6 77 -6 107 l0 55 37 0 37 0
-3 208 c-2 145 0 207 8 207 7 0 11 -32 11 -92z m-986 -54 c-76 -68 -94 -57
-21 13 35 33 61 52 69 47 8 -5 -8 -25 -48 -60z m-537 -86 c-3 -8 -6 -5 -6 6
-1 11 2 17 5 13 3 -3 4 -12 1 -19z m1600 -330 c-2 -29 -3 -8 -3 47 0 55 1 79
3 53 2 -26 2 -71 0 -100z m33 40 c0 -56 -2 -99 -4 -97 -8 10 -14 199 -5 199 5
0 9 -46 9 -102z m-211 -332 c-12 -14 -11 -93 1 -101 6 -3 10 -22 10 -41 0 -20
5 -34 13 -34 8 0 12 -15 12 -42 0 -37 3 -43 22 -46 21 -3 21 -7 17 -75 -3 -40
-21 -151 -41 -247 -19 -96 -35 -177 -36 -180 0 -3 3 -22 7 -43 5 -24 4 -42 -3
-51 -6 -7 -14 -35 -17 -62 -9 -67 -26 -91 -82 -109 l-47 -15 53 3 c36 3 52 1
49 -7 -1 -6 -9 -32 -17 -57 -13 -46 -15 -47 -74 -65 -66 -21 -242 -26 -348
-11 l-56 8 2 133 c1 105 5 138 18 158 27 40 30 190 6 246 -20 49 -24 161 -9
291 7 53 5 94 -4 140 -7 37 -15 103 -19 149 l-5 82 38 0 c90 0 329 78 446 144
l60 35 6 -97 c4 -53 3 -101 -2 -106z m154 57 c10 -193 9 -333 -2 -333 -5 0
-15 16 -21 35 -11 32 -70 95 -90 95 -14 0 -12 23 5 58 16 31 12 82 -6 82 -5 0
-9 45 -9 100 l0 100 58 0 59 0 6 -137z m-1382 -52 c114 -51 306 -45 522 16 15
4 11 -10 -21 -70 -42 -79 -52 -110 -56 -179 -2 -24 -17 -71 -34 -105 -18 -34
-32 -75 -32 -91 0 -16 -7 -49 -15 -72 -8 -23 -15 -58 -15 -78 0 -19 -6 -43
-14 -51 -7 -9 -28 -43 -46 -76 l-32 -60 37 40 36 40 -6 -35 c-15 -82 -57 -201
-81 -230 -31 -36 -52 -48 -114 -67 l-45 -13 50 6 c28 3 65 15 84 27 l34 21 -7
-25 c-4 -13 -11 -37 -15 -54 -5 -21 -14 -31 -29 -33 -44 -7 -158 31 -277 90
-66 33 -115 55 -110 50 27 -28 268 -142 323 -153 l62 -13 0 -44 c0 -25 -5 -62
-11 -83 -17 -57 -45 -64 -231 -64 l-158 1 -29 28 c-29 28 -30 29 -29 140 1 61
6 117 11 123 5 7 6 24 3 38 -4 14 0 41 9 61 8 20 13 39 10 44 -2 4 3 16 11 26
14 18 15 17 11 -14 -2 -18 0 -29 5 -24 14 14 27 110 21 161 -4 35 -1 57 9 73
8 13 22 46 32 73 10 28 24 59 31 71 10 16 13 85 11 297 l-2 277 25 -24 c15
-14 47 -34 72 -45z m1259 -62 c0 -10 -4 -19 -10 -19 -5 0 -10 12 -10 26 0 14
4 23 10 19 6 -3 10 -15 10 -26z m217 -156 c5 -15 -40 -25 -48 -11 -13 20 1 37
24 29 11 -4 23 -13 24 -18z m-143 -8 c4 -11 -1 -15 -19 -15 -25 0 -39 12 -28
24 12 11 41 6 47 -9z m-156 -1035 c2 -40 0 -80 -4 -89 -4 -9 -6 -33 -5 -54 2
-21 0 -55 -4 -76 -6 -35 -11 -40 -93 -81 -75 -38 -99 -45 -170 -50 -45 -3 -87
-11 -94 -18 -9 -9 -4 -9 23 -2 18 6 60 10 92 10 51 0 70 6 143 46 74 40 84 43
84 26 0 -14 -13 -24 -46 -37 -25 -9 -43 -19 -41 -22 3 -2 22 3 42 12 42 17 48
16 39 -8 -8 -23 -154 -69 -249 -78 l-80 -8 85 4 c58 2 109 11 160 29 41 14 76
26 78 26 9 0 0 -99 -10 -109 -11 -11 -10 -12 1 -6 10 5 12 2 8 -11 -21 -70
-29 -155 -23 -236 3 -50 10 -96 15 -102 4 -6 11 -27 14 -47 l5 -35 -60 -18
c-35 -10 -75 -16 -95 -13 -20 4 -31 2 -28 -4 9 -14 92 -11 132 6 43 18 63 14
63 -14 0 -35 75 -141 138 -196 74 -64 162 -118 244 -151 60 -23 138 -86 138
-110 0 -19 -28 -26 -125 -31 -111 -7 -255 11 -307 38 -62 32 -186 59 -270 59
-102 0 -153 20 -162 62 -11 56 -6 176 10 245 13 56 14 82 5 148 -13 97 -24
245 -22 302 1 24 -3 52 -9 63 -6 11 -15 48 -19 83 -5 34 -17 92 -26 130 -10
37 -16 69 -13 72 2 2 20 -1 40 -7 30 -9 56 -6 158 17 67 14 138 33 158 41 31
12 32 13 7 8 -257 -54 -298 -60 -336 -50 -59 15 -50 36 15 36 73 0 197 18 244
35 50 18 30 18 -38 0 -70 -19 -265 -21 -277 -2 -4 6 -9 58 -11 114 l-4 101
163 -5 c144 -4 172 -2 229 16 36 10 70 18 75 17 6 -1 11 -36 13 -76z m-1246
-73 c115 -4 147 -2 198 13 55 17 60 17 60 2 -1 -34 -21 -103 -46 -159 -15 -32
-26 -65 -25 -74 2 -19 -26 -181 -38 -224 -5 -16 -15 -65 -21 -107 l-13 -77
-44 -7 c-24 -3 -87 -4 -139 -2 -66 3 -88 1 -72 -5 13 -6 74 -9 136 -8 126 1
127 0 96 -75 -13 -31 -15 -61 -11 -146 l5 -108 -82 -1 c-44 -1 -92 -4 -106 -8
-14 -5 26 -7 88 -6 l112 3 0 -44 c0 -47 -13 -64 -29 -37 -9 16 -10 16 -11 1 0
-9 5 -20 11 -23 6 -5 10 -59 9 -153 -2 -107 2 -165 14 -216 23 -92 11 -111
-71 -122 -63 -8 -265 11 -295 27 -54 29 -52 108 10 293 39 118 39 119 41 153
1 12 10 24 21 28 11 3 23 17 26 30 4 17 11 22 27 18 18 -3 17 -1 -5 12 -21 12
-28 23 -28 46 l0 31 73 -6 72 -6 -64 15 c-72 16 -83 27 -77 70 6 35 -17 251
-29 279 -7 17 -5 18 16 12 13 -5 80 -9 149 -11 124 -3 124 -3 30 5 -108 8
-184 26 -201 46 -13 16 -7 279 7 279 5 0 55 -6 112 -14 56 -8 104 -12 107 -9
3 2 -48 13 -113 24 l-117 19 -3 33 c-2 17 0 32 5 32 4 0 51 -9 103 -20 52 -11
111 -19 130 -18 33 1 33 1 5 5 -57 7 -180 35 -212 49 -27 11 -33 18 -33 43 0
32 8 39 26 21 25 -25 133 -51 224 -55 l95 -4 -85 8 c-96 9 -158 24 -212 52
-37 19 -38 20 -38 78 0 32 3 60 6 64 4 3 21 -4 38 -17 28 -21 45 -24 168 -29z
m-192 -1054 c-11 -17 -11 -17 -6 0 3 10 6 24 7 30 0 9 2 9 5 0 3 -7 0 -20 -6
-30z"/>
<path d="M4603 7825 c-13 -9 -20 -22 -16 -31 4 -12 8 -12 21 -2 12 10 16 10
19 1 3 -7 14 -13 24 -13 11 0 17 5 14 10 -8 13 18 13 31 1 5 -6 14 -4 21 4 10
11 5 16 -21 29 -42 20 -66 20 -93 1z m102 -15 c3 -5 2 -10 -4 -10 -5 0 -13 5
-16 10 -3 6 -2 10 4 10 5 0 13 -4 16 -10z"/>
<path d="M4317 7804 c-30 -16 -27 -39 3 -29 10 3 21 1 25 -5 8 -13 45 -13 45
0 0 6 11 8 25 4 31 -8 33 9 3 30 -28 20 -65 20 -101 0z"/>
<path d="M4576 7646 l7 -28 -26 16 c-16 11 -27 13 -32 7 -3 -6 -5 -11 -3 -12
2 0 10 -2 18 -4 8 -2 23 -6 33 -10 12 -5 17 -2 17 11 0 11 -5 26 -10 34 -8 11
-9 7 -4 -14z"/>
<path d="M4428 7633 c-3 -12 -1 -26 5 -32 15 -15 32 -14 19 2 -5 6 -12 21 -14
32 -4 19 -4 19 -10 -2z"/>
<path d="M4450 7628 c0 -8 7 -15 15 -15 18 0 15 19 -3 25 -7 2 -12 -3 -12 -10z"/>
<path d="M4465 7495 c-39 -7 -54 -14 -44 -19 8 -4 28 -2 43 4 15 5 61 10 102
10 41 0 74 3 74 8 0 12 -110 10 -175 -3z"/>
<path d="M4485 7450 c8 -13 55 -13 75 0 11 7 2 10 -33 10 -30 0 -46 -4 -42
-10z"/>
<path d="M4324 7187 c3 -10 6 -22 6 -27 0 -4 24 -32 53 -61 41 -43 61 -75 96
-159 24 -58 62 -136 85 -174 22 -37 47 -78 53 -90 7 -11 13 -15 13 -8 0 7 -13
32 -29 55 -39 58 -55 91 -106 219 -47 117 -82 173 -115 183 -11 4 -29 23 -41
43 -11 20 -18 29 -15 19z"/>
<path d="M4331 6903 c49 -80 230 -343 236 -343 6 0 4 3 -139 218 -128 192
-174 252 -97 125z"/>
<path d="M3631 6764 c0 -11 3 -14 6 -6 3 7 2 16 -1 19 -3 4 -6 -2 -5 -13z"/>
<path d="M3623 6539 c2 -107 9 -200 16 -222 18 -56 22 -41 6 24 -9 40 -11 103
-7 211 3 116 2 157 -7 163 -10 6 -12 -34 -8 -176z"/>
<path d="M3706 6605 c6 -48 42 -160 50 -153 2 3 -7 40 -20 84 -14 43 -27 88
-30 99 -3 11 -3 -2 0 -30z"/>
<path d="M4631 6640 c0 -8 4 -22 9 -30 12 -18 12 -2 0 25 -6 13 -9 15 -9 5z"/>
<path d="M4650 6581 c0 -6 4 -13 10 -16 6 -3 7 1 4 9 -7 18 -14 21 -14 7z"/>
<path d="M3234 6382 c2 -45 7 -67 21 -80 12 -12 15 -12 9 -2 -4 8 -14 44 -21
80 l-12 65 3 -63z"/>
<path d="M3494 6295 c89 -240 161 -415 170 -415 12 0 -153 414 -171 430 -3 3
-3 -4 1 -15z"/>
<path d="M3145 6219 c73 -61 139 -127 190 -189 78 -95 155 -181 155 -172 0 4
-16 24 -36 43 -20 18 -44 50 -54 70 -11 20 -31 50 -45 67 -14 17 -42 57 -61
89 -20 32 -33 48 -29 35 6 -20 -2 -17 -56 23 -79 58 -118 78 -64 34z"/>
<path d="M4002 6035 c-1 -110 3 -249 8 -310 11 -119 44 -322 60 -370 l10 -30
-5 35 c-43 334 -58 499 -64 670 l-8 205 -1 -200z"/>
<path d="M4181 6014 c0 -11 3 -14 6 -6 3 7 2 16 -1 19 -3 4 -6 -2 -5 -13z"/>
<path d="M4063 5950 c0 -30 2 -43 4 -27 2 15 2 39 0 55 -2 15 -4 2 -4 -28z"/>
<path d="M4321 5974 c0 -11 3 -14 6 -6 3 7 2 16 -1 19 -3 4 -6 -2 -5 -13z"/>
<path d="M2996 5880 c8 -57 40 -133 65 -156 23 -21 25 -8 3 17 -9 10 -29 55
-45 101 -25 67 -29 75 -23 38z"/>
<path d="M3150 5543 c0 -11 143 -293 147 -290 4 5 -69 168 -107 240 -29 53
-40 67 -40 50z"/>
<path d="M3255 5489 c74 -75 256 -181 308 -179 7 1 -9 9 -34 19 -77 30 -151
76 -232 146 -42 36 -80 65 -84 65 -4 0 15 -23 42 -51z"/>
<path d="M5281 6504 c0 -11 3 -14 6 -6 3 7 2 16 -1 19 -3 4 -6 -2 -5 -13z"/>
<path d="M5463 6234 c4 -7 0 -31 -8 -54 -15 -43 -26 -220 -14 -220 12 0 37 74
43 125 l5 50 -10 -45 c-6 -25 -15 -49 -20 -54 -14 -15 -11 73 5 134 10 39 11
58 4 65 -7 7 -9 6 -5 -1z"/>
<path d="M4771 5783 c-13 -43 -38 -127 -56 -188 -19 -60 -33 -111 -31 -113 6
-5 82 219 101 296 23 98 14 102 -14 5z"/>
<path d="M5011 4319 c-6 -18 -9 -34 -7 -36 2 -2 9 10 15 28 6 18 9 34 7 36 -2
2 -9 -10 -15 -28z"/>
<path d="M3811 4265 c0 -16 6 -41 14 -55 8 -14 14 -46 15 -72 0 -39 5 -50 31
-72 28 -24 30 -29 20 -58 -17 -48 -14 -58 27 -75 20 -8 46 -22 57 -31 19 -16
19 -16 5 1 -7 10 -31 27 -51 38 l-38 19 14 39 c13 39 13 41 -16 77 -18 23 -29
49 -29 68 0 17 -7 45 -16 61 -9 17 -20 44 -24 60 l-8 30 -1 -30z"/>
<path d="M4085 4010 c60 -13 145 -21 255 -24 138 -4 150 -3 70 4 -105 10 -300
28 -370 35 -25 2 -4 -4 45 -15z"/>
<path d="M4100 3945 c88 -43 100 -46 190 -50 l95 -4 -85 10 c-58 7 -109 21
-160 44 -116 52 -147 52 -40 0z"/>
<path d="M4736 3228 c43 -85 102 -175 134 -203 13 -12 8 0 -13 28 -20 26 -61
92 -92 147 -31 55 -58 100 -61 100 -2 0 12 -33 32 -72z"/>
<path d="M4810 2899 c24 -11 84 -43 132 -70 66 -38 100 -51 140 -54 l53 -5
-45 14 c-25 7 -97 39 -160 69 -63 30 -126 58 -140 61 -14 3 -5 -3 20 -15z"/>
<path d="M4692 2861 c8 -26 52 -49 103 -55 l50 -5 -61 22 c-34 12 -70 29 -79
37 -15 13 -17 13 -13 1z"/>
<path d="M4665 2760 c-16 -7 -12 -9 19 -9 21 -1 54 -11 73 -22 49 -31 50 -18
1 14 -44 28 -60 31 -93 17z"/>
<path d="M4921 2699 c-35 -14 -23 -17 49 -11 46 3 59 7 45 13 -27 10 -65 10
-94 -2z"/>
<path d="M4770 2660 c-18 -6 -6 -8 41 -8 36 0 76 -2 90 -6 19 -4 17 -3 -6 9
-33 15 -86 18 -125 5z"/>
<path d="M4973 2630 c-23 -5 -56 -16 -73 -25 -17 -9 -50 -20 -73 -25 l-42 -8
37 -1 c20 -1 49 4 65 11 15 6 64 21 108 34 79 22 65 31 -22 14z"/>
<path d="M5247 3613 c-15 -15 -6 -52 14 -58 28 -9 53 16 44 44 -6 20 -43 29
-58 14z m46 -17 c8 -19 -15 -37 -32 -26 -17 10 -7 40 13 40 7 0 16 -6 19 -14z"/>
<path d="M3880 2991 c0 -39 -2 -42 -22 -35 -13 3 -35 13 -50 21 -16 7 -28 11
-28 8 0 -11 66 -45 87 -45 12 0 27 -8 33 -17 7 -13 9 -4 4 37 -8 69 -24 90
-24 31z"/>
<path d="M4013 2886 c1 -18 11 -35 27 -45 l25 -16 -21 30 c-12 17 -24 37 -27
45 -4 8 -5 2 -4 -14z"/>
<path d="M3890 2772 c77 -41 136 -55 185 -44 l40 8 -64 8 c-54 6 -103 19 -196
50 -11 4 5 -6 35 -22z"/>
<path d="M3772 2689 c3 -10 168 -72 168 -64 0 2 -29 19 -65 39 -65 36 -110 46
-103 25z"/>
<path d="M3735 2603 c12 -8 44 -13 89 -12 73 2 67 4 -43 18 -55 7 -61 6 -46
-6z"/>
<path d="M3990 2580 c-11 -7 -4 -10 25 -10 22 0 55 -4 73 -9 19 -6 30 -6 27
-1 -6 10 -70 30 -95 30 -8 0 -22 -5 -30 -10z"/>
<path d="M3872 2506 c36 -8 75 -19 87 -25 23 -13 75 -13 111 0 20 7 17 8 -15
4 -22 -2 -58 3 -80 11 -22 8 -69 16 -105 19 l-65 5 67 -14z"/>
<path d="M4895 2469 c-172 -14 -235 -22 -235 -30 0 -14 84 -10 147 6 31 8 80
15 108 16 27 0 68 4 90 8 50 11 20 11 -110 0z"/>
<path d="M5000 2365 c-14 -8 -20 -14 -14 -15 5 0 19 7 30 15 24 18 16 19 -16
0z"/>
<path d="M4948 2343 c7 -3 16 -2 19 1 4 3 -2 6 -13 5 -11 0 -14 -3 -6 -6z"/>
<path d="M4765 2330 l-60 -7 65 0 c36 -1 88 2 115 7 l50 7 -55 0 c-30 0 -82
-3 -115 -7z"/>
<path d="M5020 2310 c-8 -5 -10 -10 -5 -10 6 0 17 5 25 10 8 5 11 10 5 10 -5
0 -17 -5 -25 -10z"/>
<path d="M5060 2210 c-8 -5 -10 -10 -5 -10 6 0 17 5 25 10 8 5 11 10 5 10 -5
0 -17 -5 -25 -10z"/>
<path d="M4980 2188 c-19 -5 -89 -18 -155 -28 -87 -13 -106 -18 -72 -19 49 -1
225 31 269 48 30 13 2 12 -42 -1z"/>
<path d="M4955 2090 c-13 -6 -15 -9 -5 -9 8 0 22 4 30 9 18 12 2 12 -25 0z"/>
<path d="M4998 2003 c6 -2 18 -2 25 0 6 3 1 5 -13 5 -14 0 -19 -2 -12 -5z"/>
<path d="M4747 1988 c5 -10 110 -9 183 2 43 6 28 7 -66 6 -67 0 -120 -4 -117
-8z"/>
<path d="M5000 1943 c-33 -10 -73 -13 -150 -9 -67 4 -98 2 -85 -3 48 -22 264
-6 281 20 3 5 4 9 2 8 -2 -1 -23 -8 -48 -16z"/>
<path d="M5015 1911 c-17 -15 -147 -30 -197 -22 -27 4 -48 5 -48 1 0 -15 110
-21 172 -9 54 10 122 39 92 39 -5 0 -14 -4 -19 -9z"/>
<path d="M4809 1827 c13 -17 12 -18 -15 -12 -21 5 -25 4 -15 -3 26 -18 123
-23 181 -9 l55 14 -81 -5 c-67 -4 -86 -2 -110 14 -27 17 -28 17 -15 1z"/>
<path d="M4998 1753 c7 -3 16 -2 19 1 4 3 -2 6 -13 5 -11 0 -14 -3 -6 -6z"/>
<path d="M4857 1740 c-32 -4 -61 -11 -65 -15 -8 -8 105 2 158 15 l35 8 -35 0
c-19 0 -61 -4 -93 -8z"/>
<path d="M5005 1710 c-16 -7 -17 -9 -3 -9 9 -1 20 4 23 9 7 11 7 11 -20 0z"/>
<path d="M4850 1690 l-65 -7 55 -1 c30 0 75 3 100 7 40 8 41 8 10 8 -19 0 -64
-3 -100 -7z"/>
<path d="M4955 1640 c-28 -7 -28 -8 -5 -9 14 0 32 4 40 9 17 11 8 11 -35 0z"/>
<path d="M4840 1630 l-65 -7 73 -1 c47 -1 71 2 67 8 -3 6 -7 9 -8 8 -1 -1 -31
-4 -67 -8z"/>
<path d="M4864 1595 c-17 -13 -16 -13 12 -3 18 7 42 8 60 3 l29 -8 -30 -7
c-16 -4 -52 -9 -80 -10 -27 -2 -39 -4 -25 -6 14 -3 41 -9 60 -14 21 -5 56 -6
85 -1 l50 9 -50 2 c-44 1 -47 3 -22 10 16 5 34 13 40 18 7 6 21 12 32 15 11 2
-16 5 -61 6 -57 1 -86 -3 -100 -14z"/>
<path d="M4810 1416 c5 -5 63 -10 127 -11 65 0 124 -4 131 -9 7 -4 16 -6 19
-3 2 3 -8 12 -24 20 -20 11 -41 13 -76 7 -26 -4 -79 -4 -117 -1 -45 4 -66 3
-60 -3z"/>
<path d="M4814 1298 c54 -28 144 -35 171 -13 20 16 20 16 -2 6 -32 -16 -63
-14 -128 9 -74 26 -91 25 -41 -2z"/>
<path d="M4008 2163 c7 -3 16 -2 19 1 4 3 -2 6 -13 5 -11 0 -14 -3 -6 -6z"/>
<path d="M3716 2056 c22 -8 65 -16 95 -20 l54 -6 -55 14 c-30 7 -73 16 -95 19
l-40 6 41 -13z"/>
<path d="M3888 2023 c12 -2 32 -2 45 0 12 2 2 4 -23 4 -25 0 -35 -2 -22 -4z"/>
<path d="M3968 2023 c7 -3 16 -2 19 1 4 3 -2 6 -13 5 -11 0 -14 -3 -6 -6z"/>
<path d="M3670 2012 c27 -18 137 -42 181 -40 40 1 41 2 9 5 -36 4 -153 28
-186 39 -15 4 -16 4 -4 -4z"/>
<path d="M3923 1963 c9 -2 25 -2 35 0 9 3 1 5 -18 5 -19 0 -27 -2 -17 -5z"/>
<path d="M3673 1943 c11 -18 95 -34 201 -38 l101 -4 -90 9 c-87 8 -162 22
-200 36 -12 5 -16 4 -12 -3z"/>
<path d="M3716 1860 c11 -4 56 -10 100 -14 l79 -5 -75 14 c-41 7 -86 14 -100
14 -23 0 -23 -1 -4 -9z"/>
<path d="M3717 1689 c5 -5 54 -11 109 -14 89 -4 92 -3 34 5 -118 16 -152 18
-143 9z"/>
<path d="M3720 1610 c14 -9 189 -15 179 -6 -2 2 -47 6 -99 9 -63 5 -90 3 -80
-3z"/>
<path d="M3739 1557 c5 -5 28 -7 52 -5 l44 3 -52 5 c-29 3 -48 1 -44 -3z"/>
<path d="M3853 1543 c9 -2 23 -2 30 0 6 3 -1 5 -18 5 -16 0 -22 -2 -12 -5z"/>
<path d="M3730 1518 c0 -4 24 -7 53 -7 54 1 49 5 -15 11 -21 2 -38 0 -38 -4z"/>
<path d="M3853 1503 c9 -2 23 -2 30 0 6 3 -1 5 -18 5 -16 0 -22 -2 -12 -5z"/>
<path d="M3770 1469 c41 -5 95 -13 119 -18 26 -5 39 -5 34 0 -13 13 -118 29
-178 28 -44 -1 -42 -3 25 -10z"/>
<path d="M5817 1383 c-4 -3 -8 -36 -8 -72 -1 -52 -3 -59 -9 -36 -4 17 -8 47
-9 69 -1 35 -3 38 -23 32 -13 -3 -26 -6 -30 -6 -5 0 -8 -15 -8 -32 0 -56 -17
-65 -24 -15 -6 42 -9 45 -29 38 -23 -9 -34 -36 -36 -88 -1 -41 -15 -42 -31 -3
-11 26 -10 33 4 49 13 14 14 21 5 27 -7 4 -18 -1 -27 -12 -10 -13 -16 -15 -19
-6 -13 33 -23 4 -23 -64 0 -47 4 -73 10 -69 6 3 10 21 10 38 l1 32 17 -30 c18
-33 56 -40 74 -14 7 11 11 11 15 2 6 -16 54 -6 69 15 8 11 13 12 18 4 14 -22
106 7 106 34 0 9 -7 14 -17 12 -16 -3 -18 4 -16 50 2 48 -4 62 -20 45z m-60
-95 c-3 -7 -5 -2 -5 12 0 14 2 19 5 13 2 -7 2 -19 0 -25z m-80 -20 c-3 -7 -5
-2 -5 12 0 14 2 19 5 13 2 -7 2 -19 0 -25z"/>
<path d="M5696 1145 c-20 -21 -21 -64 -1 -72 9 -3 22 2 30 13 8 11 14 14 15 7
0 -20 28 -15 40 7 10 18 7 24 -12 21 -13 -2 -9 17 5 22 6 2 8 8 4 13 -4 4 -16
3 -26 -3 -12 -8 -22 -8 -28 -2 -7 7 -16 5 -27 -6z m24 -35 c0 -11 -4 -20 -10
-20 -5 0 -10 9 -10 20 0 11 5 20 10 20 6 0 10 -9 10 -20z"/>
</g>
</svg>
